# xmcd CD database file
#
# Track frame offsets:
#	150
#	14220
#	27671
#	39295
#	52517
#	67015
#	81488
#	94979
#	107749
#	122109
#	135379
#	148803
#	162269
#	174469
#	189140
#	201448
#	214663
#	228601
#	241587
#	255137
#
# Disc length: 3569 seconds
#
# Revision: 0
# Processed by: cddbd v1.5.2PL0 Copyright (c) Steve Scherf et al.
# Submitted via: CDex 1.99.1
#
DISCID=150def14
DTITLE=Jazzin Legendat 3 - Grappelli and Venuti - Viulujazzin kuninkaat
DYEAR=2009
DGENRE=Jazz
TTITLE0=Hot Lips
TTITLE1=H.C.Q. Strut
TTITLE2=Swing From Paris
TTITLE3=It Had To Be You
TTITLE4=Nocturne
TTITLE5=After You've Gone
TTITLE6=Stephane's Tune
TTITLE7=Blue Ribbon Rag
TTITLE8=The Sheik Of Araby
TTITLE9=Noel Brings The Swing
TTITLE10=The Wild Cat
TTITLE11=Sunshine
TTITLE12=Stringing The Blues
TTITLE13=Kickin' The Cat
TTITLE14=Beatin' The Dog
TTITLE15=Cheese And Crackers
TTITLE16=A Mug Of Ale
TTITLE17=Penn Beach Blues
TTITLE18=Four String Joe
TTITLE19=The Wild Dog
EXTD=YEAR: 2009
EXTT0=
EXTT1=
EXTT2=
EXTT3=
EXTT4=
EXTT5=
EXTT6=
EXTT7=
EXTT8=
EXTT9=
EXTT10=
EXTT11=
EXTT12=
EXTT13=
EXTT14=
EXTT15=
EXTT16=
EXTT17=
EXTT18=
EXTT19=
PLAYORDER=
